<svg width="402" height="34" viewBox="0 0 402 34" fill="none" xmlns="http://www.w3.org/2000/svg">
<path d="M38.72 12.8L30.72 33.92H21.184C18.5387 33.92 15.9573 33.6853 13.44 33.216C10.9227 32.7466 8.66134 31.936 6.65601 30.784C4.65068 29.5893 3.02934 27.9893 1.79201 25.984C0.597343 23.9786 9.53674e-06 21.44 9.53674e-06 18.368C9.53674e-06 16.2773 0.448009 14.1653 1.34401 12.032H13.76C13.4613 12.5013 13.2053 12.9706 12.992 13.44C12.7787 13.9093 12.5867 14.3786 12.416 14.848C12.0747 16 11.904 16.8746 11.904 17.472C11.904 18.2826 12.096 19.1573 12.48 20.096C12.9067 20.992 13.44 21.824 14.08 22.592C14.7627 23.36 15.488 24 16.256 24.512C17.0667 25.024 17.856 25.28 18.624 25.28H22.4L23.872 21.12H16.64V21.056C16.6827 20.928 16.9387 20.5226 17.408 19.84C17.92 19.1146 18.5173 18.3253 19.2 17.472C19.8827 16.576 20.5867 15.7013 21.312 14.848C22.08 13.952 22.7627 13.2693 23.36 12.8H38.72ZM18.624 8.63998H18.432H3.07201C3.84001 7.44532 4.71468 6.33598 5.69601 5.31198C6.72001 4.24531 7.80801 3.32798 8.96001 2.55998C10.1547 1.74932 11.392 1.13065 12.672 0.703979C13.9947 0.234647 15.3387 -1.90735e-05 16.704 -1.90735e-05H43.136C41.8987 1.62132 40.64 3.15731 39.36 4.60798C38.1227 6.01598 36.7573 7.35998 35.264 8.63998H18.624ZM79.9775 33.92H68.5855L67.2415 26.688C67.1562 26.944 66.8362 27.4346 66.2815 28.16C65.7695 28.8853 65.1722 29.6533 64.4895 30.464C63.8495 31.2746 63.2095 32.0213 62.5695 32.704C61.9295 33.3866 61.4602 33.792 61.1615 33.92H34.0895C34.1748 33.4933 34.2175 33.344 34.2175 33.472V33.28L50.8575 12.032H63.7215L54.2495 24.704V25.344H67.2415L65.2575 12.032H76.5855L79.9775 33.92ZM53.4815 8.63998L57.2575 3.83998C57.3855 3.58398 57.6415 3.24265 58.0255 2.81598C58.4095 2.38931 58.8148 1.98398 59.2415 1.59998C59.7108 1.17331 60.1588 0.810647 60.5855 0.511982C61.0548 0.170648 61.4388 -1.90735e-05 61.7375 -1.90735e-05H72.4895C72.9162 -1.90735e-05 73.3002 0.234647 73.6415 0.703979C74.0255 1.17331 74.3455 1.74932 74.6015 2.43198C74.8575 3.11465 75.0708 3.83998 75.2415 4.60798C75.4548 5.33331 75.6255 5.95198 75.7535 6.46398L76.0735 8.63998H53.4815ZM132.834 33.92H120.546L127.458 14.848L110.05 33.92H105.634L102.114 14.848L95.202 33.92H82.914L90.85 12.032H113.058L114.018 17.024L118.626 12.032H140.77L132.834 33.92ZM92.13 8.63998L95.266 -1.90735e-05H110.754L112.418 8.63998H92.13ZM121.762 8.63998L129.698 -1.90735e-05H145.186L142.05 8.63998H121.762ZM181.79 33.92H170.398L169.054 26.688C168.969 26.944 168.649 27.4346 168.094 28.16C167.582 28.8853 166.985 29.6533 166.302 30.464C165.662 31.2746 165.022 32.0213 164.382 32.704C163.742 33.3866 163.273 33.792 162.974 33.92H135.902C135.987 33.4933 136.03 33.344 136.03 33.472V33.28L152.67 12.032H165.534L156.062 24.704V25.344H169.054L167.07 12.032H178.398L181.79 33.92ZM155.294 8.63998L159.07 3.83998C159.198 3.58398 159.454 3.24265 159.838 2.81598C160.222 2.38931 160.627 1.98398 161.054 1.59998C161.523 1.17331 161.971 0.810647 162.398 0.511982C162.867 0.170648 163.251 -1.90735e-05 163.55 -1.90735e-05H174.302C174.729 -1.90735e-05 175.113 0.234647 175.454 0.703979C175.838 1.17331 176.158 1.74932 176.414 2.43198C176.67 3.11465 176.883 3.83998 177.054 4.60798C177.267 5.33331 177.438 5.95198 177.566 6.46398L177.886 8.63998H155.294ZM202.519 18.688L208.599 12.8H223.383L214.231 21.44H201.495L196.951 33.92H184.727L192.663 12.032H204.951L202.519 18.688ZM197.079 -1.90735e-05H233.559C233.26 0.554648 232.769 1.30131 232.087 2.23998C231.404 3.17865 230.679 4.11731 229.911 5.05598C229.143 5.99465 228.396 6.82665 227.671 7.55198C226.945 8.23465 226.391 8.59731 226.007 8.63998H193.943L197.079 -1.90735e-05ZM271.943 15.552C271.559 18.0693 270.727 20.4373 269.447 22.656C268.167 24.8746 266.567 26.816 264.647 28.48C262.769 30.144 260.636 31.4666 258.247 32.448C255.9 33.4293 253.468 33.92 250.951 33.92H244.551C242.204 33.92 240.028 33.728 238.023 33.344C236.017 32.96 234.289 32.32 232.839 31.424C231.388 30.4853 230.236 29.2266 229.383 27.648C228.572 26.0693 228.167 24.0853 228.167 21.696C228.167 21.184 228.188 20.6506 228.231 20.096C228.273 19.5413 228.337 18.9653 228.423 18.368C228.721 16.2346 229.404 14.1226 230.471 12.032H243.463C242.993 12.5013 242.567 12.9706 242.183 13.44C241.841 13.9093 241.564 14.3786 241.351 14.848C241.137 15.36 240.945 15.8506 240.775 16.32C240.604 16.7466 240.497 17.1306 240.455 17.472C240.412 17.5146 240.391 17.664 240.391 17.92V18.304C240.391 19.072 240.54 19.8826 240.839 20.736C241.137 21.5466 241.543 22.2933 242.055 22.976C242.567 23.6586 243.164 24.2133 243.847 24.64C244.529 25.0666 245.255 25.28 246.023 25.28H250.247C250.673 25.28 251.271 25.1093 252.039 24.768C252.849 24.384 253.681 23.8933 254.535 23.296C255.388 22.6986 256.199 22.0373 256.967 21.312C257.735 20.544 258.311 19.7973 258.695 19.072C259.079 18.4746 259.313 18.0053 259.399 17.664L259.655 17.024C259.697 16.8106 259.719 16.6613 259.719 16.576C259.761 16.448 259.783 16.4053 259.783 16.448C259.825 16.1066 259.847 15.7653 259.847 15.424C259.889 15.04 259.911 14.656 259.911 14.272C259.911 13.4186 259.825 12.672 259.655 12.032H272.327C272.284 13.1413 272.156 14.3146 271.943 15.552ZM232.647 8.63998C234.567 6.07998 236.892 4.01065 239.623 2.43198C242.396 0.810648 245.233 -1.90735e-05 248.135 -1.90735e-05H256.583C261.105 -1.90735e-05 264.668 0.682648 267.271 2.04798C269.873 3.37065 271.473 5.56798 272.071 8.63998H249.607H249.415H232.647ZM268.852 33.92L276.788 12.032H289.076L286.708 18.56L292.34 12.864H302.58C303.134 12.864 303.582 12.5866 303.924 12.032H316.532C316.148 13.7813 315.38 15.2106 314.228 16.32C313.118 17.4293 311.796 18.3253 310.26 19.008C308.724 19.648 307.081 20.1173 305.332 20.416C303.625 20.7146 301.982 20.928 300.404 21.056L312.948 33.92H299.252L286.068 21.76L285.364 22.272L281.14 33.92H268.852ZM278.068 8.63998L281.204 -1.90735e-05H309.748C311.07 -1.90735e-05 312.158 0.277315 313.012 0.831982C313.908 1.34398 314.612 2.02665 315.124 2.87998C315.678 3.73331 316.062 4.67198 316.276 5.69598C316.532 6.71998 316.681 7.70131 316.724 8.63998H303.732C303.646 8.63998 303.561 8.63998 303.476 8.63998C303.39 8.59731 303.305 8.57598 303.22 8.57598H290.356L290.292 8.63998H278.068ZM318.563 18.368V18.24C318.563 16.192 318.989 14.1226 319.843 12.032H332.451C332.109 12.5013 331.811 12.9706 331.555 13.44C331.341 13.9093 331.149 14.3786 330.979 14.848C330.637 16 330.467 16.8746 330.467 17.472C330.467 18.2826 330.68 19.1573 331.107 20.096C331.533 20.992 332.067 21.824 332.707 22.592C333.389 23.36 334.115 24 334.883 24.512C335.693 25.024 336.461 25.28 337.187 25.28H352.483C351.501 26.7306 350.392 28.224 349.155 29.76C347.917 31.2533 346.488 32.64 344.867 33.92H339.747C337.101 33.92 334.52 33.6853 332.003 33.216C329.485 32.7466 327.224 31.936 325.219 30.784C323.213 29.5893 321.592 27.9893 320.355 25.984C319.16 23.9786 318.563 21.44 318.563 18.368ZM321.571 8.63998C322.339 7.44532 323.213 6.33598 324.195 5.31198C325.219 4.24531 326.307 3.32798 327.459 2.55998C328.653 1.74932 329.891 1.13065 331.171 0.703979C332.493 0.234647 333.859 -1.90735e-05 335.267 -1.90735e-05H361.699C360.461 1.62132 359.203 3.15731 357.923 4.60798C356.685 6.01598 355.32 7.35998 353.827 8.63998H337.187H336.995H321.571ZM370.394 18.688L376.474 12.8H391.258L382.106 21.44H369.37L367.962 25.28H392.474C392.431 25.3653 392.324 25.5573 392.154 25.856C391.983 26.112 391.812 26.3893 391.642 26.688C391.471 26.9866 391.3 27.264 391.13 27.52C390.959 27.776 390.852 27.9253 390.81 27.968C390.426 28.48 389.892 29.0773 389.21 29.76C388.57 30.4426 387.93 31.104 387.29 31.744C386.65 32.3413 386.074 32.8533 385.562 33.28C385.092 33.7066 384.836 33.92 384.794 33.92H352.602L360.538 12.032H372.826L370.394 18.688ZM364.954 -1.90735e-05H401.434C401.135 0.554648 400.644 1.30131 399.962 2.23998C399.279 3.17865 398.554 4.11731 397.786 5.05598C397.018 5.99465 396.271 6.82665 395.546 7.55198C394.82 8.23465 394.266 8.59731 393.882 8.63998H361.818L364.954 -1.90735e-05Z" fill="#172D5D"/>
</svg>
