<svg width="738" height="34" viewBox="0 0 738 34" fill="none" xmlns="http://www.w3.org/2000/svg">
<path d="M1.52588e-05 33.92C0.896015 32.4266 1.85602 30.9546 2.88002 29.504C3.90402 28.0533 5.09868 26.6453 6.46402 25.28H19.392C20.2027 25.28 20.992 25.0666 21.76 24.64C22.528 24.2133 23.2107 23.68 23.808 23.04C24.448 22.4 25.0027 21.7173 25.472 20.992C25.984 20.2666 26.3894 19.6053 26.688 19.008L29.184 12.032H41.344L39.552 16.96C38.5707 19.6906 37.5894 22.1226 36.608 24.256C35.6267 26.3466 34.4747 28.1173 33.152 29.568C31.8294 30.976 30.2294 32.064 28.352 32.832C26.5173 33.5573 24.2347 33.92 21.504 33.92H1.52588e-05ZM30.464 8.63998L33.6 -1.90735e-05H45.76L42.56 8.63998H30.464ZM82.3835 33.92H70.9915L69.6475 26.688C69.5622 26.944 69.2422 27.4346 68.6875 28.16C68.1755 28.8853 67.5782 29.6533 66.8955 30.464C66.2555 31.2746 65.6155 32.0213 64.9755 32.704C64.3355 33.3866 63.8662 33.792 63.5675 33.92H36.4955C36.5808 33.4933 36.6235 33.344 36.6235 33.472V33.28L53.2635 12.032H66.1275L56.6555 24.704V25.344H69.6475L67.6635 12.032H78.9915L82.3835 33.92ZM55.8875 8.63998L59.6635 3.83998C59.7915 3.58398 60.0475 3.24265 60.4315 2.81598C60.8155 2.38931 61.2208 1.98398 61.6475 1.59998C62.1168 1.17331 62.5648 0.810647 62.9915 0.511982C63.4608 0.170648 63.8448 -1.90735e-05 64.1435 -1.90735e-05H74.8955C75.3222 -1.90735e-05 75.7062 0.234647 76.0475 0.703979C76.4315 1.17331 76.7515 1.74932 77.0075 2.43198C77.2635 3.11465 77.4769 3.83998 77.6475 4.60798C77.8609 5.33331 78.0315 5.95198 78.1595 6.46398L78.4795 8.63998H55.8875ZM123.751 12.8L115.751 33.92H106.215C103.57 33.92 100.988 33.6853 98.471 33.216C95.9537 32.7466 93.6923 31.936 91.687 30.784C89.6817 29.5893 88.0603 27.9893 86.823 25.984C85.6283 23.9786 85.031 21.44 85.031 18.368C85.031 16.2773 85.479 14.1653 86.375 12.032H98.791C98.4923 12.5013 98.2363 12.9706 98.023 13.44C97.8097 13.9093 97.6177 14.3786 97.447 14.848C97.1057 16 96.935 16.8746 96.935 17.472C96.935 18.2826 97.127 19.1573 97.511 20.096C97.9377 20.992 98.471 21.824 99.111 22.592C99.7937 23.36 100.519 24 101.287 24.512C102.098 25.024 102.887 25.28 103.655 25.28H107.431L108.903 21.12H101.671V21.056C101.714 20.928 101.97 20.5226 102.439 19.84C102.951 19.1146 103.548 18.3253 104.231 17.472C104.914 16.576 105.618 15.7013 106.343 14.848C107.111 13.952 107.794 13.2693 108.391 12.8H123.751ZM103.655 8.63998H103.463H88.103C88.871 7.44532 89.7457 6.33598 90.727 5.31198C91.751 4.24531 92.839 3.32798 93.991 2.55998C95.1857 1.74932 96.423 1.13065 97.703 0.703979C99.0257 0.234647 100.37 -1.90735e-05 101.735 -1.90735e-05H128.167C126.93 1.62132 125.671 3.15731 124.391 4.60798C123.154 6.01598 121.788 7.35998 120.295 8.63998H103.655ZM165.009 33.92H153.617L152.273 26.688C152.187 26.944 151.867 27.4346 151.313 28.16C150.801 28.8853 150.203 29.6533 149.521 30.464C148.881 31.2746 148.241 32.0213 147.601 32.704C146.961 33.3866 146.491 33.792 146.193 33.92H119.121C119.206 33.4933 119.249 33.344 119.249 33.472V33.28L135.889 12.032H148.753L139.281 24.704V25.344H152.273L150.289 12.032H161.617L165.009 33.92ZM138.513 8.63998L142.289 3.83998C142.417 3.58398 142.673 3.24265 143.057 2.81598C143.441 2.38931 143.846 1.98398 144.273 1.59998C144.742 1.17331 145.19 0.810647 145.617 0.511982C146.086 0.170648 146.47 -1.90735e-05 146.769 -1.90735e-05H157.521C157.947 -1.90735e-05 158.331 0.234647 158.673 0.703979C159.057 1.17331 159.377 1.74932 159.633 2.43198C159.889 3.11465 160.102 3.83998 160.273 4.60798C160.486 5.33331 160.657 5.95198 160.785 6.46398L161.105 8.63998H138.513ZM167.466 8.63998V8.57598C167.509 8.40532 167.807 7.93598 168.362 7.16798C168.959 6.39998 169.642 5.54665 170.41 4.60798C171.221 3.66931 172.031 2.77332 172.842 1.91998C173.695 1.02398 174.421 0.383981 175.018 -1.90735e-05H207.082C206.783 0.554648 206.293 1.30131 205.61 2.23998C204.927 3.17865 204.202 4.11731 203.434 5.05598C202.666 5.99465 201.919 6.82665 201.194 7.55198C200.469 8.23465 199.914 8.59731 199.53 8.63998H167.466ZM170.346 33.92L178.282 12.032H190.57L182.634 33.92H170.346ZM246.283 22.784C246.283 22.4426 246.219 22.1013 246.091 21.76C245.963 21.376 245.728 21.184 245.387 21.184H232.587C231.349 21.184 230.24 20.9066 229.259 20.352C228.277 19.7973 227.424 19.0933 226.699 18.24C225.973 17.344 225.397 16.3626 224.971 15.296C224.544 14.1866 224.288 13.0986 224.203 12.032H236.939C236.939 12.1173 236.981 12.16 237.067 12.16C237.237 12.3306 237.472 12.5013 237.771 12.672C238.112 12.8 238.304 12.864 238.347 12.864H250.507C251.915 12.864 253.109 13.2053 254.091 13.888C255.072 14.528 255.861 15.36 256.459 16.384C257.099 17.3653 257.547 18.432 257.803 19.584C258.101 20.736 258.251 21.8026 258.251 22.784V23.168C258.251 24.2773 257.995 25.472 257.483 26.752C256.971 27.9893 256.288 29.1413 255.435 30.208C254.624 31.2746 253.664 32.1706 252.555 32.896C251.488 33.5786 250.379 33.92 249.227 33.92H216.587C216.8 33.4933 217.227 32.8106 217.867 31.872C218.549 30.9333 219.253 29.9946 219.979 29.056C220.747 28.0746 221.451 27.2213 222.091 26.496C222.731 25.728 223.115 25.344 223.243 25.344H245.003C245.643 25.344 246.005 25.152 246.091 24.768C246.219 24.384 246.283 23.9786 246.283 23.552V22.784ZM266.827 -1.90735e-05C265.845 1.45065 264.715 2.90132 263.435 4.35198C262.197 5.80265 260.832 7.23198 259.339 8.63998H224.715C225.099 7.65865 225.611 6.65598 226.251 5.63198C226.933 4.60798 227.701 3.69065 228.555 2.87998C229.408 2.02665 230.304 1.34398 231.243 0.831982C232.224 0.277315 233.205 -1.90735e-05 234.187 -1.90735e-05H266.827ZM303.509 33.92H292.117L290.773 26.688C290.687 26.944 290.367 27.4346 289.813 28.16C289.301 28.8853 288.703 29.6533 288.021 30.464C287.381 31.2746 286.741 32.0213 286.101 32.704C285.461 33.3866 284.991 33.792 284.693 33.92H257.621C257.706 33.4933 257.749 33.344 257.749 33.472V33.28L274.389 12.032H287.253L277.781 24.704V25.344H290.773L288.789 12.032H300.117L303.509 33.92ZM277.013 8.63998L280.789 3.83998C280.917 3.58398 281.173 3.24265 281.557 2.81598C281.941 2.38931 282.346 1.98398 282.773 1.59998C283.242 1.17331 283.69 0.810647 284.117 0.511982C284.586 0.170648 284.97 -1.90735e-05 285.269 -1.90735e-05H296.021C296.447 -1.90735e-05 296.831 0.234647 297.173 0.703979C297.557 1.17331 297.877 1.74932 298.133 2.43198C298.389 3.11465 298.602 3.83998 298.773 4.60798C298.986 5.33331 299.157 5.95198 299.285 6.46398L299.605 8.63998H277.013ZM306.445 33.92L314.381 12.032H326.669L325.517 15.232L329.933 12.032H344.653L338.253 16.96L350.541 33.92H336.845L324.301 18.688L318.733 33.92H306.445ZM334.669 8.63998L346.701 -1.90735e-05H360.397L349.069 8.63998H334.669ZM315.661 8.63998L318.797 -1.90735e-05H331.085L327.949 8.63998H315.661ZM381.533 22.784C381.533 22.4426 381.469 22.1013 381.341 21.76C381.213 21.376 380.978 21.184 380.637 21.184H367.837C366.599 21.184 365.49 20.9066 364.509 20.352C363.527 19.7973 362.674 19.0933 361.949 18.24C361.223 17.344 360.647 16.3626 360.221 15.296C359.794 14.1866 359.538 13.0986 359.453 12.032H372.189C372.189 12.1173 372.231 12.16 372.317 12.16C372.487 12.3306 372.722 12.5013 373.021 12.672C373.362 12.8 373.554 12.864 373.597 12.864H385.757C387.165 12.864 388.359 13.2053 389.341 13.888C390.322 14.528 391.111 15.36 391.709 16.384C392.349 17.3653 392.797 18.432 393.053 19.584C393.351 20.736 393.501 21.8026 393.501 22.784V23.168C393.501 24.2773 393.245 25.472 392.733 26.752C392.221 27.9893 391.538 29.1413 390.685 30.208C389.874 31.2746 388.914 32.1706 387.805 32.896C386.738 33.5786 385.629 33.92 384.477 33.92H351.837C352.05 33.4933 352.477 32.8106 353.117 31.872C353.799 30.9333 354.503 29.9946 355.229 29.056C355.997 28.0746 356.701 27.2213 357.341 26.496C357.981 25.728 358.365 25.344 358.493 25.344H380.253C380.893 25.344 381.255 25.152 381.341 24.768C381.469 24.384 381.533 23.9786 381.533 23.552V22.784ZM402.077 -1.90735e-05C401.095 1.45065 399.965 2.90132 398.685 4.35198C397.447 5.80265 396.082 7.23198 394.589 8.63998H359.965C360.349 7.65865 360.861 6.65598 361.501 5.63198C362.183 4.60798 362.951 3.69065 363.805 2.87998C364.658 2.02665 365.554 1.34398 366.493 0.831982C367.474 0.277315 368.455 -1.90735e-05 369.437 -1.90735e-05H402.077ZM438.759 33.92H427.367L426.023 26.688C425.937 26.944 425.617 27.4346 425.063 28.16C424.551 28.8853 423.953 29.6533 423.271 30.464C422.631 31.2746 421.991 32.0213 421.351 32.704C420.711 33.3866 420.241 33.792 419.943 33.92H392.871C392.956 33.4933 392.999 33.344 392.999 33.472V33.28L409.639 12.032H422.503L413.031 24.704V25.344H426.023L424.039 12.032H435.367L438.759 33.92ZM412.263 8.63998L416.039 3.83998C416.167 3.58398 416.423 3.24265 416.807 2.81598C417.191 2.38931 417.596 1.98398 418.023 1.59998C418.492 1.17331 418.94 0.810647 419.367 0.511982C419.836 0.170648 420.22 -1.90735e-05 420.519 -1.90735e-05H431.271C431.697 -1.90735e-05 432.081 0.234647 432.423 0.703979C432.807 1.17331 433.127 1.74932 433.383 2.43198C433.639 3.11465 433.852 3.83998 434.023 4.60798C434.236 5.33331 434.407 5.95198 434.535 6.46398L434.855 8.63998H412.263ZM441.695 33.92L449.631 12.032H471.839L473.183 19.072L475.743 12.032H487.903L479.967 33.92H464.479L460.895 14.848L453.983 33.92H441.695ZM450.911 8.63998L454.047 -1.90735e-05H469.535L471.199 8.63998H450.911ZM476.959 8.63998L480.159 -1.90735e-05H492.319L489.183 8.63998H476.959ZM528.946 33.92H517.554L516.21 26.688C516.125 26.944 515.805 27.4346 515.25 28.16C514.738 28.8853 514.141 29.6533 513.458 30.464C512.818 31.2746 512.178 32.0213 511.538 32.704C510.898 33.3866 510.429 33.792 510.13 33.92H483.058C483.143 33.4933 483.186 33.344 483.186 33.472V33.28L499.826 12.032H512.69L503.218 24.704V25.344H516.21L514.226 12.032H525.554L528.946 33.92ZM502.45 8.63998L506.226 3.83998C506.354 3.58398 506.61 3.24265 506.994 2.81598C507.378 2.38931 507.783 1.98398 508.21 1.59998C508.679 1.17331 509.127 0.810647 509.554 0.511982C510.023 0.170648 510.407 -1.90735e-05 510.706 -1.90735e-05H521.458C521.885 -1.90735e-05 522.269 0.234647 522.61 0.703979C522.994 1.17331 523.314 1.74932 523.57 2.43198C523.826 3.11465 524.039 3.83998 524.21 4.60798C524.423 5.33331 524.594 5.95198 524.722 6.46398L525.042 8.63998H502.45ZM593.214 18.624C591.379 21.3973 589.523 23.7653 587.646 25.728C585.811 27.648 583.806 29.2266 581.63 30.464C579.496 31.6586 577.128 32.5333 574.526 33.088C571.966 33.6426 569.022 33.92 565.694 33.92H549.758L557.694 12.032H570.11L565.31 25.28H566.974C568.126 25.28 569.384 25.0666 570.75 24.64C572.115 24.1706 573.459 23.5733 574.782 22.848C576.104 22.1226 577.32 21.312 578.43 20.416C579.582 19.4773 580.478 18.5386 581.118 17.6C581.374 17.2586 581.651 16.8746 581.95 16.448C582.291 16.0213 582.568 15.5306 582.782 14.976C582.995 14.464 583.187 13.9733 583.358 13.504C583.571 12.992 583.72 12.5013 583.806 12.032H596.542C596.2 13.1413 595.752 14.272 595.198 15.424C594.643 16.5333 593.982 17.6 593.214 18.624ZM597.246 7.48798C597.246 7.70131 597.246 7.89331 597.246 8.06398C597.246 8.23465 597.224 8.42665 597.182 8.63998H558.974L562.11 -1.90735e-05H589.95C592.51 -1.90735e-05 594.366 0.703981 595.518 2.11198C596.67 3.51998 597.246 5.31198 597.246 7.48798ZM592.011 33.92L599.947 12.032H612.235L604.299 33.92H592.011ZM601.227 8.63998L604.363 -1.90735e-05H616.651L613.515 8.63998H601.227ZM608.008 33.92L615.944 12.032H628.232L625.864 18.56L631.496 12.864H641.736C642.29 12.864 642.738 12.5866 643.08 12.032H655.688C655.304 13.7813 654.536 15.2106 653.384 16.32C652.274 17.4293 650.952 18.3253 649.416 19.008C647.88 19.648 646.237 20.1173 644.488 20.416C642.781 20.7146 641.138 20.928 639.56 21.056L652.104 33.92H638.408L625.224 21.76L624.52 22.272L620.296 33.92H608.008ZM617.224 8.63998L620.36 -1.90735e-05H648.904C650.312 -1.90735e-05 651.464 0.277315 652.36 0.831982C653.256 1.34398 653.96 2.02665 654.472 2.87998C654.984 3.73331 655.346 4.67198 655.56 5.69598C655.773 6.71998 655.901 7.70131 655.944 8.63998H642.888C642.802 8.63998 642.717 8.63998 642.632 8.63998C642.546 8.59731 642.461 8.57598 642.376 8.57598H629.512L629.448 8.63998H617.224ZM696.439 12.8L688.439 33.92H678.903C676.257 33.92 673.676 33.6853 671.159 33.216C668.641 32.7466 666.38 31.936 664.375 30.784C662.369 29.5893 660.748 27.9893 659.511 25.984C658.316 23.9786 657.719 21.44 657.719 18.368C657.719 16.2773 658.167 14.1653 659.063 12.032H671.479C671.18 12.5013 670.924 12.9706 670.711 13.44C670.497 13.9093 670.305 14.3786 670.135 14.848C669.793 16 669.623 16.8746 669.623 17.472C669.623 18.2826 669.815 19.1573 670.199 20.096C670.625 20.992 671.159 21.824 671.799 22.592C672.481 23.36 673.207 24 673.975 24.512C674.785 25.024 675.575 25.28 676.343 25.28H680.119L681.591 21.12H674.359V21.056C674.401 20.928 674.657 20.5226 675.127 19.84C675.639 19.1146 676.236 18.3253 676.919 17.472C677.601 16.576 678.305 15.7013 679.031 14.848C679.799 13.952 680.481 13.2693 681.079 12.8H696.439ZM676.343 8.63998H676.151H660.791C661.559 7.44532 662.433 6.33598 663.415 5.31198C664.439 4.24531 665.527 3.32798 666.679 2.55998C667.873 1.74932 669.111 1.13065 670.391 0.703979C671.713 0.234647 673.057 -1.90735e-05 674.423 -1.90735e-05H700.855C699.617 1.62132 698.359 3.15731 697.079 4.60798C695.841 6.01598 694.476 7.35998 692.983 8.63998H676.343ZM737.696 33.92H726.304L724.96 26.688C724.875 26.944 724.555 27.4346 724 28.16C723.488 28.8853 722.891 29.6533 722.208 30.464C721.568 31.2746 720.928 32.0213 720.288 32.704C719.648 33.3866 719.179 33.792 718.88 33.92H691.808C691.893 33.4933 691.936 33.344 691.936 33.472V33.28L708.576 12.032H721.44L711.968 24.704V25.344H724.96L722.976 12.032H734.304L737.696 33.92ZM711.2 8.63998L714.976 3.83998C715.104 3.58398 715.36 3.24265 715.744 2.81598C716.128 2.38931 716.533 1.98398 716.96 1.59998C717.429 1.17331 717.877 0.810647 718.304 0.511982C718.773 0.170648 719.157 -1.90735e-05 719.456 -1.90735e-05H730.208C730.635 -1.90735e-05 731.019 0.234647 731.36 0.703979C731.744 1.17331 732.064 1.74932 732.32 2.43198C732.576 3.11465 732.789 3.83998 732.96 4.60798C733.173 5.33331 733.344 5.95198 733.472 6.46398L733.792 8.63998H711.2Z" fill="#172D5D"/>
</svg>
